<?xml version="1.0" encoding="utf-8"?>
<!-- Generator: Adobe Illustrator 24.2.3, SVG Export Plug-In . SVG Version: 6.00 Build 0)  -->
<svg version="1.1" id="Layer_1" xmlns="http://www.w3.org/2000/svg" xmlns:xlink="http://www.w3.org/1999/xlink" x="0px" y="0px"
	 viewBox="0 0 64 64" style="enable-background:new 0 0 64 64;" xml:space="preserve">
<style type="text/css">
	.st0{fill:url(#SVGID_1_);}
	.st1{fill:#FFFFFF;}
</style>
<linearGradient id="SVGID_1_" gradientUnits="userSpaceOnUse" x1="32" y1="60" x2="32" y2="10" gradientTransform="matrix(1 0 0 -1 0 66)">
	<stop  offset="0" style="stop-color:#42D778"/>
	<stop  offset="0.996" style="stop-color:#34B171"/>
	<stop  offset="1" style="stop-color:#34B171"/>
</linearGradient>
<path class="st0" d="M57,31c0,13.8-11.2,25-25,25S7,44.8,7,31S18.2,6,32,6S57,17.2,57,31z"/>
<path class="st1" d="M32,18L32,18c1.7,0,3,1.3,3,3v20c0,1.7-1.3,3-3,3l0,0c-1.7,0-3-1.3-3-3V21C29,19.3,30.3,18,32,18z"/>
<path class="st1" d="M45,31L45,31c0,1.7-1.3,3-3,3H22c-1.7,0-3-1.3-3-3l0,0c0-1.7,1.3-3,3-3h20C43.7,28,45,29.3,45,31z"/>
</svg>
